{"title":"The Fourth Phase 2016 DOCU WEBRip XviD MP3-FGT [CoolSceneHD]","uid":15953001,"size":1247046010,"categoryP":"video","categoryS":"movies","magnet":"?xt=urn:btih:cf79601c58dbff92894e08cef0fa5d522e881010&amp;dn=The+Fourth+Phase+2016+DOCU+WEBRip+XviD+MP3-FGT+%5BCoolSceneHD%5D&amp;tr=udp%3A%2F%2Ftracker.leechers-paradise.org%3A6969&amp;tr=udp%3A%2F%2Fzer0day.ch%3A1337&amp;tr=udp%3A%2F%2Fopen.demonii.com%3A1337&amp;tr=udp%3A%2F%2Ftracker.coppersurfer.tk%3A6969&amp;tr=udp%3A%2F%2Fexodus.desync.com%3A6969","seeders":0,"leechers":1,"uploader":"CoolSceneHD","files":1,"time":1475589807,"description":"Plot:\tIconic snowboarder Travis Rice and friends embark on a multi-year mission to follow the North Pacific Gyre's flow. As Rice and the crew experience the highs and lows of a journey unlike any previously attempted| cutting-edge cinematography captures some of the world's most remote environments bringing breathtaking scenery and thrilling action to viewers worldwide.\r\n\r\n\r\nVideo\r\nID                                       : 0\r\nFormat                                   : MPEG-4 Visual\r\nFormat profile                           :   \r\nFormat settings, BVOP                    : No\r\nFormat settings, QPel                    : No\r\nFormat settings, GMC                     : No warppoints\r\nFormat settings, Matrix                  : Default (H.263)\r\nCodec ID                                 : XVID\r\nCodec ID/Hint                            : XviD\r\nDuration                                 : 1h 32mn\r\nBit rate                                 : 1 598 Kbps\r\nWidth                                    : 720 pixels\r\nHeight                                   : 384 pixels\r\nDisplay aspect ratio                     : 1.85:1\r\nFrame rate                               : 23.976 fps\r\nColor space                              : YUV\r\nChroma subsampling                       : 4:2:0\r\nBit depth                                : 8 bits\r\nScan type                                : Progressive\r\nCompression mode                         : Lossy\r\nBits/(Pixel*Frame)                       : 0.241\r\nStream size                              : 1.03 GiB (89%)\r\nWriting library                          : Lavc57.24.102\r\n\r\nAudio\r\nID                                       : 1\r\nFormat                                   : MPEG Audio\r\nFormat version                           : Version 1\r\nFormat profile                           : Layer 3\r\nMode                                     : Joint stereo\r\nCodec ID                                 : 55\r\nCodec ID/Hint                            : MP3\r\nDuration                                 : 1h 32mn\r\nBit rate mode                            : Constant\r\nBit rate                                 : 192 Kbps\r\nChannel(s)                               : 2 channels\r\nSampling rate                            : 48.0 KHz\r\nCompression mode                         : Lossy\r\nStream size                              : 127 MiB (11%)\r\nAlignment                                : Aligned on interleaves\r\nInterleave, duration                     : 24 ms (0.58 video frame)\r\nInterleave, preload duration             : 504 ms\r\nWriting library                          : LAME3.99.5","torrent":{"xt":"urn:btih:cf79601c58dbff92894e08cef0fa5d522e881010","amp;dn":"The+Fourth+Phase+2016+DOCU+WEBRip+XviD+MP3-FGT+%5BCoolSceneHD%5D","amp;tr":["udp%3A%2F%2Ftracker.leechers-paradise.org%3A6969","udp%3A%2F%2Fzer0day.ch%3A1337","udp%3A%2F%2Fopen.demonii.com%3A1337","udp%3A%2F%2Ftracker.coppersurfer.tk%3A6969","udp%3A%2F%2Fexodus.desync.com%3A6969"],"infoHash":"cf79601c58dbff92894e08cef0fa5d522e881010","infoHashBuffer":{"type":"Buffer","data":[207,121,96,28,88,219,255,146,137,78,8,206,240,250,93,82,46,136,16,16]},"announce":[],"urlList":[]}}